<svg class="main-svg" xmlns="http://www.w3.org/2000/svg" xmlns:xlink="http://www.w3.org/1999/xlink" width="1000" height="600" style="" viewBox="0 0 1000 600"><rect x="0" y="0" width="1000" height="600" style="fill: rgb(255, 255, 255); fill-opacity: 1;"/><defs id="defs-d1a3b8"><g class="clips"><clipPath id="clipd1a3b8xyplot" class="plotclip"><rect width="770" height="420"/></clipPath><clipPath class="axesclip" id="clipd1a3b8x"><rect x="80" y="0" width="770" height="600"/></clipPath><clipPath class="axesclip" id="clipd1a3b8y"><rect x="0" y="100" width="1000" height="420"/></clipPath><clipPath class="axesclip" id="clipd1a3b8xy"><rect x="80" y="100" width="770" height="420"/></clipPath></g><g class="gradients"/><g class="patterns"/></defs><g class="bglayer"/><g class="layer-below"><g class="imagelayer"/><g class="shapelayer"/></g><g class="cartesianlayer"><g class="subplot xy"><g class="layer-subplot"><g class="shapelayer"/><g class="imagelayer"/></g><g class="minor-gridlayer"><g class="x"/><g class="y"/></g><g class="gridlayer"><g class="x"><path class="xgrid crisp" transform="translate(123.5,0)" d="M0,100v420" style="stroke: rgb(128, 128, 128); stroke-opacity: 0.2; stroke-width: 1px;"/><path class="xgrid crisp" transform="translate(214.57,0)" d="M0,100v420" style="stroke: rgb(128, 128, 128); stroke-opacity: 0.2; stroke-width: 1px;"/><path class="xgrid crisp" transform="translate(305.63,0)" d="M0,100v420" style="stroke: rgb(128, 128, 128); stroke-opacity: 0.2; stroke-width: 1px;"/><path class="xgrid crisp" transform="translate(396.7,0)" d="M0,100v420" style="stroke: rgb(128, 128, 128); stroke-opacity: 0.2; stroke-width: 1px;"/><path class="xgrid crisp" transform="translate(487.77,0)" d="M0,100v420" style="stroke: rgb(128, 128, 128); stroke-opacity: 0.2; stroke-width: 1px;"/><path class="xgrid crisp" transform="translate(578.8299999999999,0)" d="M0,100v420" style="stroke: rgb(128, 128, 128); stroke-opacity: 0.2; stroke-width: 1px;"/><path class="xgrid crisp" transform="translate(669.9,0)" d="M0,100v420" style="stroke: rgb(128, 128, 128); stroke-opacity: 0.2; stroke-width: 1px;"/><path class="xgrid crisp" transform="translate(760.97,0)" d="M0,100v420" style="stroke: rgb(128, 128, 128); stroke-opacity: 0.2; stroke-width: 1px;"/></g><g class="y"><path class="ygrid crisp" transform="translate(0,480.36)" d="M80,0h770" style="stroke: rgb(128, 128, 128); stroke-opacity: 0.2; stroke-width: 1px;"/><path class="ygrid crisp" transform="translate(0,420.82)" d="M80,0h770" style="stroke: rgb(128, 128, 128); stroke-opacity: 0.2; stroke-width: 1px;"/><path class="ygrid crisp" transform="translate(0,361.28)" d="M80,0h770" style="stroke: rgb(128, 128, 128); stroke-opacity: 0.2; stroke-width: 1px;"/><path class="ygrid crisp" transform="translate(0,301.75)" d="M80,0h770" style="stroke: rgb(128, 128, 128); stroke-opacity: 0.2; stroke-width: 1px;"/><path class="ygrid crisp" transform="translate(0,242.21)" d="M80,0h770" style="stroke: rgb(128, 128, 128); stroke-opacity: 0.2; stroke-width: 1px;"/><path class="ygrid crisp" transform="translate(0,182.68)" d="M80,0h770" style="stroke: rgb(128, 128, 128); stroke-opacity: 0.2; stroke-width: 1px;"/><path class="ygrid crisp" transform="translate(0,123.14)" d="M80,0h770" style="stroke: rgb(128, 128, 128); stroke-opacity: 0.2; stroke-width: 1px;"/></g></g><g class="zerolinelayer"/><g class="layer-between"><g class="shapelayer"/><g class="imagelayer"/></g><path class="xlines-below"/><path class="ylines-below"/><g class="overlines-below"/><g class="xaxislayer-below"/><g class="yaxislayer-below"/><g class="overaxes-below"/><g class="overplot"><g class="xy" transform="translate(80,100)" clip-path="url(#clipd1a3b8xyplot)"><g class="scatterlayer mlayer"><g class="trace scatter trace4308f7" style="stroke-miterlimit: 2; opacity: 1;"><g class="fills"/><g class="errorbars"/><g class="lines"/><g class="points"><path class="point" transform="translate(453.3,199.44)" d="M4,0A4,4 0 1,1 0,-4A4,4 0 0,1 4,0Z" style="opacity: 0.6; stroke-width: 0.5px; fill: rgb(253, 50, 22); fill-opacity: 1; stroke: rgb(0, 0, 0); stroke-opacity: 1;"/><path class="point" transform="translate(407.77,180.33)" d="M4,0A4,4 0 1,1 0,-4A4,4 0 0,1 4,0Z" style="opacity: 0.6; stroke-width: 0.5px; fill: rgb(253, 50, 22); fill-opacity: 1; stroke: rgb(0, 0, 0); stroke-opacity: 1;"/><path class="point" transform="translate(362.23,153.24)" d="M4,0A4,4 0 1,1 0,-4A4,4 0 0,1 4,0Z" style="opacity: 0.6; stroke-width: 0.5px; fill: rgb(253, 50, 22); fill-opacity: 1; stroke: rgb(0, 0, 0); stroke-opacity: 1;"/><path class="point" transform="translate(316.7,150.31)" d="M4,0A4,4 0 1,1 0,-4A4,4 0 0,1 4,0Z" style="opacity: 0.6; stroke-width: 0.5px; fill: rgb(253, 50, 22); fill-opacity: 1; stroke: rgb(0, 0, 0); stroke-opacity: 1;"/><path class="point" transform="translate(271.17,98.9)" d="M4,0A4,4 0 1,1 0,-4A4,4 0 0,1 4,0Z" style="opacity: 0.6; stroke-width: 0.5px; fill: rgb(253, 50, 22); fill-opacity: 1; stroke: rgb(0, 0, 0); stroke-opacity: 1;"/><path class="point" transform="translate(225.63,74.81)" d="M4,0A4,4 0 1,1 0,-4A4,4 0 0,1 4,0Z" style="opacity: 0.6; stroke-width: 0.5px; fill: rgb(253, 50, 22); fill-opacity: 1; stroke: rgb(0, 0, 0); stroke-opacity: 1;"/><path class="point" transform="translate(180.1,86.86)" d="M4,0A4,4 0 1,1 0,-4A4,4 0 0,1 4,0Z" style="opacity: 0.6; stroke-width: 0.5px; fill: rgb(253, 50, 22); fill-opacity: 1; stroke: rgb(0, 0, 0); stroke-opacity: 1;"/><path class="point" transform="translate(134.57,37.71)" d="M4,0A4,4 0 1,1 0,-4A4,4 0 0,1 4,0Z" style="opacity: 0.6; stroke-width: 0.5px; fill: rgb(253, 50, 22); fill-opacity: 1; stroke: rgb(0, 0, 0); stroke-opacity: 1;"/><path class="point" transform="translate(89.03,51.34)" d="M4,0A4,4 0 1,1 0,-4A4,4 0 0,1 4,0Z" style="opacity: 0.6; stroke-width: 0.5px; fill: rgb(253, 50, 22); fill-opacity: 1; stroke: rgb(0, 0, 0); stroke-opacity: 1;"/><path class="point" transform="translate(43.5,53.86)" d="M4,0A4,4 0 1,1 0,-4A4,4 0 0,1 4,0Z" style="opacity: 0.6; stroke-width: 0.5px; fill: rgb(253, 50, 22); fill-opacity: 1; stroke: rgb(0, 0, 0); stroke-opacity: 1;"/></g><g class="text"/></g><g class="trace scatter trace9dc129" style="stroke-miterlimit: 2; opacity: 1;"><g class="fills"/><g class="errorbars"/><g class="lines"/><g class="points"><path class="point" transform="translate(498.83,188.16)" d="M4,0A4,4 0 1,1 0,-4A4,4 0 0,1 4,0Z" style="opacity: 0.6; stroke-width: 0.5px; fill: rgb(0, 254, 53); fill-opacity: 1; stroke: rgb(0, 0, 0); stroke-opacity: 1;"/><path class="point" transform="translate(453.3,206.11)" d="M4,0A4,4 0 1,1 0,-4A4,4 0 0,1 4,0Z" style="opacity: 0.6; stroke-width: 0.5px; fill: rgb(0, 254, 53); fill-opacity: 1; stroke: rgb(0, 0, 0); stroke-opacity: 1;"/><path class="point" transform="translate(407.77,230.25)" d="M4,0A4,4 0 1,1 0,-4A4,4 0 0,1 4,0Z" style="opacity: 0.6; stroke-width: 0.5px; fill: rgb(0, 254, 53); fill-opacity: 1; stroke: rgb(0, 0, 0); stroke-opacity: 1;"/><path class="point" transform="translate(362.23,214.1)" d="M4,0A4,4 0 1,1 0,-4A4,4 0 0,1 4,0Z" style="opacity: 0.6; stroke-width: 0.5px; fill: rgb(0, 254, 53); fill-opacity: 1; stroke: rgb(0, 0, 0); stroke-opacity: 1;"/><path class="point" transform="translate(316.7,159.84)" d="M4,0A4,4 0 1,1 0,-4A4,4 0 0,1 4,0Z" style="opacity: 0.6; stroke-width: 0.5px; fill: rgb(0, 254, 53); fill-opacity: 1; stroke: rgb(0, 0, 0); stroke-opacity: 1;"/><path class="point" transform="translate(271.17,141.59)" d="M4,0A4,4 0 1,1 0,-4A4,4 0 0,1 4,0Z" style="opacity: 0.6; stroke-width: 0.5px; fill: rgb(0, 254, 53); fill-opacity: 1; stroke: rgb(0, 0, 0); stroke-opacity: 1;"/><path class="point" transform="translate(225.63,105.42)" d="M4,0A4,4 0 1,1 0,-4A4,4 0 0,1 4,0Z" style="opacity: 0.6; stroke-width: 0.5px; fill: rgb(0, 254, 53); fill-opacity: 1; stroke: rgb(0, 0, 0); stroke-opacity: 1;"/><path class="point" transform="translate(180.1,67.25)" d="M4,0A4,4 0 1,1 0,-4A4,4 0 0,1 4,0Z" style="opacity: 0.6; stroke-width: 0.5px; fill: rgb(0, 254, 53); fill-opacity: 1; stroke: rgb(0, 0, 0); stroke-opacity: 1;"/><path class="point" transform="translate(134.57,82.51)" d="M4,0A4,4 0 1,1 0,-4A4,4 0 0,1 4,0Z" style="opacity: 0.6; stroke-width: 0.5px; fill: rgb(0, 254, 53); fill-opacity: 1; stroke: rgb(0, 0, 0); stroke-opacity: 1;"/><path class="point" transform="translate(89.03,106.34)" d="M4,0A4,4 0 1,1 0,-4A4,4 0 0,1 4,0Z" style="opacity: 0.6; stroke-width: 0.5px; fill: rgb(0, 254, 53); fill-opacity: 1; stroke: rgb(0, 0, 0); stroke-opacity: 1;"/></g><g class="text"/></g><g class="trace scatter trace0c606d" style="stroke-miterlimit: 2; opacity: 1;"><g class="fills"/><g class="errorbars"/><g class="lines"/><g class="points"><path class="point" transform="translate(544.37,394)" d="M4,0A4,4 0 1,1 0,-4A4,4 0 0,1 4,0Z" style="opacity: 0.6; stroke-width: 0.5px; fill: rgb(106, 118, 252); fill-opacity: 1; stroke: rgb(0, 0, 0); stroke-opacity: 1;"/><path class="point" transform="translate(498.83,247.41)" d="M4,0A4,4 0 1,1 0,-4A4,4 0 0,1 4,0Z" style="opacity: 0.6; stroke-width: 0.5px; fill: rgb(106, 118, 252); fill-opacity: 1; stroke: rgb(0, 0, 0); stroke-opacity: 1;"/><path class="point" transform="translate(453.3,207.12)" d="M4,0A4,4 0 1,1 0,-4A4,4 0 0,1 4,0Z" style="opacity: 0.6; stroke-width: 0.5px; fill: rgb(106, 118, 252); fill-opacity: 1; stroke: rgb(0, 0, 0); stroke-opacity: 1;"/><path class="point" transform="translate(407.77,247.1)" d="M4,0A4,4 0 1,1 0,-4A4,4 0 0,1 4,0Z" style="opacity: 0.6; stroke-width: 0.5px; fill: rgb(106, 118, 252); fill-opacity: 1; stroke: rgb(0, 0, 0); stroke-opacity: 1;"/><path class="point" transform="translate(362.23,218.06)" d="M4,0A4,4 0 1,1 0,-4A4,4 0 0,1 4,0Z" style="opacity: 0.6; stroke-width: 0.5px; fill: rgb(106, 118, 252); fill-opacity: 1; stroke: rgb(0, 0, 0); stroke-opacity: 1;"/><path class="point" transform="translate(316.7,222.57)" d="M4,0A4,4 0 1,1 0,-4A4,4 0 0,1 4,0Z" style="opacity: 0.6; stroke-width: 0.5px; fill: rgb(106, 118, 252); fill-opacity: 1; stroke: rgb(0, 0, 0); stroke-opacity: 1;"/><path class="point" transform="translate(271.17,127.83)" d="M4,0A4,4 0 1,1 0,-4A4,4 0 0,1 4,0Z" style="opacity: 0.6; stroke-width: 0.5px; fill: rgb(106, 118, 252); fill-opacity: 1; stroke: rgb(0, 0, 0); stroke-opacity: 1;"/><path class="point" transform="translate(225.63,100.01)" d="M4,0A4,4 0 1,1 0,-4A4,4 0 0,1 4,0Z" style="opacity: 0.6; stroke-width: 0.5px; fill: rgb(106, 118, 252); fill-opacity: 1; stroke: rgb(0, 0, 0); stroke-opacity: 1;"/><path class="point" transform="translate(180.1,114.24)" d="M4,0A4,4 0 1,1 0,-4A4,4 0 0,1 4,0Z" style="opacity: 0.6; stroke-width: 0.5px; fill: rgb(106, 118, 252); fill-opacity: 1; stroke: rgb(0, 0, 0); stroke-opacity: 1;"/><path class="point" transform="translate(134.57,148.63)" d="M4,0A4,4 0 1,1 0,-4A4,4 0 0,1 4,0Z" style="opacity: 0.6; stroke-width: 0.5px; fill: rgb(106, 118, 252); fill-opacity: 1; stroke: rgb(0, 0, 0); stroke-opacity: 1;"/></g><g class="text"/></g><g class="trace scatter trace9530f0" style="stroke-miterlimit: 2; opacity: 1;"><g class="fills"/><g class="errorbars"/><g class="lines"/><g class="points"/><g class="text"/></g><g class="trace scatter traceb82f5e" style="stroke-miterlimit: 2; opacity: 1;"><g class="fills"/><g class="errorbars"/><g class="lines"/><g class="points"><path class="point" transform="translate(635.43,259.31)" d="M4,0A4,4 0 1,1 0,-4A4,4 0 0,1 4,0Z" style="opacity: 0.6; stroke-width: 0.5px; fill: rgb(254, 0, 206); fill-opacity: 1; stroke: rgb(0, 0, 0); stroke-opacity: 1;"/><path class="point" transform="translate(589.9,233.33)" d="M4,0A4,4 0 1,1 0,-4A4,4 0 0,1 4,0Z" style="opacity: 0.6; stroke-width: 0.5px; fill: rgb(254, 0, 206); fill-opacity: 1; stroke: rgb(0, 0, 0); stroke-opacity: 1;"/><path class="point" transform="translate(544.37,260.12)" d="M4,0A4,4 0 1,1 0,-4A4,4 0 0,1 4,0Z" style="opacity: 0.6; stroke-width: 0.5px; fill: rgb(254, 0, 206); fill-opacity: 1; stroke: rgb(0, 0, 0); stroke-opacity: 1;"/><path class="point" transform="translate(498.83,274.59)" d="M4,0A4,4 0 1,1 0,-4A4,4 0 0,1 4,0Z" style="opacity: 0.6; stroke-width: 0.5px; fill: rgb(254, 0, 206); fill-opacity: 1; stroke: rgb(0, 0, 0); stroke-opacity: 1;"/><path class="point" transform="translate(453.3,296.1)" d="M4,0A4,4 0 1,1 0,-4A4,4 0 0,1 4,0Z" style="opacity: 0.6; stroke-width: 0.5px; fill: rgb(254, 0, 206); fill-opacity: 1; stroke: rgb(0, 0, 0); stroke-opacity: 1;"/><path class="point" transform="translate(407.77,231.82)" d="M4,0A4,4 0 1,1 0,-4A4,4 0 0,1 4,0Z" style="opacity: 0.6; stroke-width: 0.5px; fill: rgb(254, 0, 206); fill-opacity: 1; stroke: rgb(0, 0, 0); stroke-opacity: 1;"/><path class="point" transform="translate(362.23,159.97)" d="M4,0A4,4 0 1,1 0,-4A4,4 0 0,1 4,0Z" style="opacity: 0.6; stroke-width: 0.5px; fill: rgb(254, 0, 206); fill-opacity: 1; stroke: rgb(0, 0, 0); stroke-opacity: 1;"/><path class="point" transform="translate(316.7,129.21)" d="M4,0A4,4 0 1,1 0,-4A4,4 0 0,1 4,0Z" style="opacity: 0.6; stroke-width: 0.5px; fill: rgb(254, 0, 206); fill-opacity: 1; stroke: rgb(0, 0, 0); stroke-opacity: 1;"/><path class="point" transform="translate(271.17,26)" d="M4,0A4,4 0 1,1 0,-4A4,4 0 0,1 4,0Z" style="opacity: 0.6; stroke-width: 0.5px; fill: rgb(254, 0, 206); fill-opacity: 1; stroke: rgb(0, 0, 0); stroke-opacity: 1;"/><path class="point" transform="translate(225.63,26.06)" d="M4,0A4,4 0 1,1 0,-4A4,4 0 0,1 4,0Z" style="opacity: 0.6; stroke-width: 0.5px; fill: rgb(254, 0, 206); fill-opacity: 1; stroke: rgb(0, 0, 0); stroke-opacity: 1;"/></g><g class="text"/></g><g class="trace scatter trace499206" style="stroke-miterlimit: 2; opacity: 1;"><g class="fills"/><g class="errorbars"/><g class="lines"/><g class="points"><path class="point" transform="translate(680.97,239.59)" d="M4,0A4,4 0 1,1 0,-4A4,4 0 0,1 4,0Z" style="opacity: 0.6; stroke-width: 0.5px; fill: rgb(13, 249, 255); fill-opacity: 1; stroke: rgb(0, 0, 0); stroke-opacity: 1;"/><path class="point" transform="translate(635.43,183.56)" d="M4,0A4,4 0 1,1 0,-4A4,4 0 0,1 4,0Z" style="opacity: 0.6; stroke-width: 0.5px; fill: rgb(13, 249, 255); fill-opacity: 1; stroke: rgb(0, 0, 0); stroke-opacity: 1;"/><path class="point" transform="translate(589.9,174.58)" d="M4,0A4,4 0 1,1 0,-4A4,4 0 0,1 4,0Z" style="opacity: 0.6; stroke-width: 0.5px; fill: rgb(13, 249, 255); fill-opacity: 1; stroke: rgb(0, 0, 0); stroke-opacity: 1;"/><path class="point" transform="translate(544.37,230.95)" d="M4,0A4,4 0 1,1 0,-4A4,4 0 0,1 4,0Z" style="opacity: 0.6; stroke-width: 0.5px; fill: rgb(13, 249, 255); fill-opacity: 1; stroke: rgb(0, 0, 0); stroke-opacity: 1;"/><path class="point" transform="translate(498.83,220.42)" d="M4,0A4,4 0 1,1 0,-4A4,4 0 0,1 4,0Z" style="opacity: 0.6; stroke-width: 0.5px; fill: rgb(13, 249, 255); fill-opacity: 1; stroke: rgb(0, 0, 0); stroke-opacity: 1;"/><path class="point" transform="translate(453.3,283.53)" d="M4,0A4,4 0 1,1 0,-4A4,4 0 0,1 4,0Z" style="opacity: 0.6; stroke-width: 0.5px; fill: rgb(13, 249, 255); fill-opacity: 1; stroke: rgb(0, 0, 0); stroke-opacity: 1;"/><path class="point" transform="translate(407.77,178.61)" d="M4,0A4,4 0 1,1 0,-4A4,4 0 0,1 4,0Z" style="opacity: 0.6; stroke-width: 0.5px; fill: rgb(13, 249, 255); fill-opacity: 1; stroke: rgb(0, 0, 0); stroke-opacity: 1;"/><path class="point" transform="translate(362.23,116.86)" d="M4,0A4,4 0 1,1 0,-4A4,4 0 0,1 4,0Z" style="opacity: 0.6; stroke-width: 0.5px; fill: rgb(13, 249, 255); fill-opacity: 1; stroke: rgb(0, 0, 0); stroke-opacity: 1;"/><path class="point" transform="translate(316.7,93.15)" d="M4,0A4,4 0 1,1 0,-4A4,4 0 0,1 4,0Z" style="opacity: 0.6; stroke-width: 0.5px; fill: rgb(13, 249, 255); fill-opacity: 1; stroke: rgb(0, 0, 0); stroke-opacity: 1;"/><path class="point" transform="translate(271.17,106.49)" d="M4,0A4,4 0 1,1 0,-4A4,4 0 0,1 4,0Z" style="opacity: 0.6; stroke-width: 0.5px; fill: rgb(13, 249, 255); fill-opacity: 1; stroke: rgb(0, 0, 0); stroke-opacity: 1;"/></g><g class="text"/></g><g class="trace scatter trace99832c" style="stroke-miterlimit: 2; opacity: 1;"><g class="fills"/><g class="errorbars"/><g class="lines"/><g class="points"><path class="point" transform="translate(726.5,262.08)" d="M4,0A4,4 0 1,1 0,-4A4,4 0 0,1 4,0Z" style="opacity: 0.6; stroke-width: 0.5px; fill: rgb(246, 249, 38); fill-opacity: 1; stroke: rgb(0, 0, 0); stroke-opacity: 1;"/><path class="point" transform="translate(680.97,222.85)" d="M4,0A4,4 0 1,1 0,-4A4,4 0 0,1 4,0Z" style="opacity: 0.6; stroke-width: 0.5px; fill: rgb(246, 249, 38); fill-opacity: 1; stroke: rgb(0, 0, 0); stroke-opacity: 1;"/><path class="point" transform="translate(635.43,204.29)" d="M4,0A4,4 0 1,1 0,-4A4,4 0 0,1 4,0Z" style="opacity: 0.6; stroke-width: 0.5px; fill: rgb(246, 249, 38); fill-opacity: 1; stroke: rgb(0, 0, 0); stroke-opacity: 1;"/><path class="point" transform="translate(589.9,219.06)" d="M4,0A4,4 0 1,1 0,-4A4,4 0 0,1 4,0Z" style="opacity: 0.6; stroke-width: 0.5px; fill: rgb(246, 249, 38); fill-opacity: 1; stroke: rgb(0, 0, 0); stroke-opacity: 1;"/><path class="point" transform="translate(544.37,282.04)" d="M4,0A4,4 0 1,1 0,-4A4,4 0 0,1 4,0Z" style="opacity: 0.6; stroke-width: 0.5px; fill: rgb(246, 249, 38); fill-opacity: 1; stroke: rgb(0, 0, 0); stroke-opacity: 1;"/><path class="point" transform="translate(498.83,285.42)" d="M4,0A4,4 0 1,1 0,-4A4,4 0 0,1 4,0Z" style="opacity: 0.6; stroke-width: 0.5px; fill: rgb(246, 249, 38); fill-opacity: 1; stroke: rgb(0, 0, 0); stroke-opacity: 1;"/><path class="point" transform="translate(453.3,269.72)" d="M4,0A4,4 0 1,1 0,-4A4,4 0 0,1 4,0Z" style="opacity: 0.6; stroke-width: 0.5px; fill: rgb(246, 249, 38); fill-opacity: 1; stroke: rgb(0, 0, 0); stroke-opacity: 1;"/><path class="point" transform="translate(407.77,189.57)" d="M4,0A4,4 0 1,1 0,-4A4,4 0 0,1 4,0Z" style="opacity: 0.6; stroke-width: 0.5px; fill: rgb(246, 249, 38); fill-opacity: 1; stroke: rgb(0, 0, 0); stroke-opacity: 1;"/><path class="point" transform="translate(362.23,125.5)" d="M4,0A4,4 0 1,1 0,-4A4,4 0 0,1 4,0Z" style="opacity: 0.6; stroke-width: 0.5px; fill: rgb(246, 249, 38); fill-opacity: 1; stroke: rgb(0, 0, 0); stroke-opacity: 1;"/><path class="point" transform="translate(316.7,106.45)" d="M4,0A4,4 0 1,1 0,-4A4,4 0 0,1 4,0Z" style="opacity: 0.6; stroke-width: 0.5px; fill: rgb(246, 249, 38); fill-opacity: 1; stroke: rgb(0, 0, 0); stroke-opacity: 1;"/></g><g class="text"/></g></g></g></g><g class="zerolinelayer-above"/><path class="xlines-above crisp" d="M0,0" style="fill: none;"/><path class="ylines-above crisp" d="M0,0" style="fill: none;"/><g class="overlines-above"/><g class="xaxislayer-above"><g class="xtick"><text text-anchor="middle" x="0" y="532" transform="translate(123.5,0)" style="font-family: 'Open Sans', verdana, arial, sans-serif; font-size: 11px; fill: rgb(42, 63, 95); fill-opacity: 1; white-space: pre;">10n</text></g><g class="xtick"><text text-anchor="middle" x="0" y="532" style="font-family: 'Open Sans', verdana, arial, sans-serif; font-size: 11px; fill: rgb(42, 63, 95); fill-opacity: 1; white-space: pre;" transform="translate(214.57,0)">1μ</text></g><g class="xtick"><text text-anchor="middle" x="0" y="532" style="font-family: 'Open Sans', verdana, arial, sans-serif; font-size: 11px; fill: rgb(42, 63, 95); fill-opacity: 1; white-space: pre;" transform="translate(305.63,0)">100μ</text></g><g class="xtick"><text text-anchor="middle" x="0" y="532" style="font-family: 'Open Sans', verdana, arial, sans-serif; font-size: 11px; fill: rgb(42, 63, 95); fill-opacity: 1; white-space: pre;" transform="translate(396.7,0)">0.01</text></g><g class="xtick"><text text-anchor="middle" x="0" y="532" style="font-family: 'Open Sans', verdana, arial, sans-serif; font-size: 11px; fill: rgb(42, 63, 95); fill-opacity: 1; white-space: pre;" transform="translate(487.77,0)">1</text></g><g class="xtick"><text text-anchor="middle" x="0" y="532" style="font-family: 'Open Sans', verdana, arial, sans-serif; font-size: 11px; fill: rgb(42, 63, 95); fill-opacity: 1; white-space: pre;" transform="translate(578.8299999999999,0)">100</text></g><g class="xtick"><text text-anchor="middle" x="0" y="532" style="font-family: 'Open Sans', verdana, arial, sans-serif; font-size: 11px; fill: rgb(42, 63, 95); fill-opacity: 1; white-space: pre;" transform="translate(669.9,0)">10k</text></g><g class="xtick"><text text-anchor="middle" x="0" y="532" style="font-family: 'Open Sans', verdana, arial, sans-serif; font-size: 11px; fill: rgb(42, 63, 95); fill-opacity: 1; white-space: pre;" transform="translate(760.97,0)">1M</text></g></g><g class="yaxislayer-above"><g class="ytick"><text text-anchor="end" x="79" y="3.8499999999999996" transform="translate(0,480.36)" style="font-family: 'Open Sans', verdana, arial, sans-serif; font-size: 11px; fill: rgb(42, 63, 95); fill-opacity: 1; white-space: pre;">1p</text></g><g class="ytick"><text text-anchor="end" x="79" y="3.8499999999999996" style="font-family: 'Open Sans', verdana, arial, sans-serif; font-size: 11px; fill: rgb(42, 63, 95); fill-opacity: 1; white-space: pre;" transform="translate(0,420.82)">100p</text></g><g class="ytick"><text text-anchor="end" x="79" y="3.8499999999999996" style="font-family: 'Open Sans', verdana, arial, sans-serif; font-size: 11px; fill: rgb(42, 63, 95); fill-opacity: 1; white-space: pre;" transform="translate(0,361.28)">10n</text></g><g class="ytick"><text text-anchor="end" x="79" y="3.8499999999999996" style="font-family: 'Open Sans', verdana, arial, sans-serif; font-size: 11px; fill: rgb(42, 63, 95); fill-opacity: 1; white-space: pre;" transform="translate(0,301.75)">1μ</text></g><g class="ytick"><text text-anchor="end" x="79" y="3.8499999999999996" style="font-family: 'Open Sans', verdana, arial, sans-serif; font-size: 11px; fill: rgb(42, 63, 95); fill-opacity: 1; white-space: pre;" transform="translate(0,242.21)">100μ</text></g><g class="ytick"><text text-anchor="end" x="79" y="3.8499999999999996" style="font-family: 'Open Sans', verdana, arial, sans-serif; font-size: 11px; fill: rgb(42, 63, 95); fill-opacity: 1; white-space: pre;" transform="translate(0,182.68)">0.01</text></g><g class="ytick"><text text-anchor="end" x="79" y="3.8499999999999996" style="font-family: 'Open Sans', verdana, arial, sans-serif; font-size: 11px; fill: rgb(42, 63, 95); fill-opacity: 1; white-space: pre;" transform="translate(0,123.14)">1</text></g></g><g class="overaxes-above"/></g></g><g class="polarlayer"/><g class="smithlayer"/><g class="ternarylayer"/><g class="geolayer"/><g class="funnelarealayer"/><g class="pielayer"/><g class="iciclelayer"/><g class="treemaplayer"/><g class="sunburstlayer"/><g class="glimages"/><defs id="topdefs-d1a3b8"><g class="clips"/><clipPath id="legendd1a3b8"><rect width="121" height="203" x="1" y="1"/></clipPath></defs><g class="layer-above"><g class="imagelayer"/><g class="shapelayer"/></g><g class="infolayer"><g class="legend" pointer-events="all" transform="translate(865.4,100)"><rect class="bg" shape-rendering="crispEdges" style="stroke: rgb(0, 0, 0); stroke-opacity: 1; fill: rgb(255, 255, 255); fill-opacity: 0.8; stroke-width: 1px;" width="122" height="204" x="0.5" y="0.5"/><g class="scrollbox" transform="" clip-path="url(#legendd1a3b8)"><g class="groups" transform=""><g class="traces" transform="translate(1,15.5)" style="opacity: 1;"><text class="legendtext" text-anchor="start" x="40" y="4.29" style="font-family: 'Open Sans', verdana, arial, sans-serif; font-size: 11px; fill: rgb(42, 63, 95); fill-opacity: 1; white-space: pre;">tau_b=1.0e-03</text><g class="layers" style="opacity: 1;"><g class="legendfill"/><g class="legendlines"/><g class="legendsymbols"><g class="legendpoints"><path class="scatterpts" transform="translate(20,0)" d="M4,0A4,4 0 1,1 0,-4A4,4 0 0,1 4,0Z" style="opacity: 0.6; stroke-width: 0.5px; fill: rgb(253, 50, 22); fill-opacity: 1; stroke: rgb(0, 0, 0); stroke-opacity: 1;"/></g></g></g><rect class="legendtoggle" x="0" y="-9.5" width="115.265625" height="19" style="fill: rgb(0, 0, 0); fill-opacity: 0;"/></g></g><g class="groups" transform="translate(0,10)"><g class="traces" transform="translate(1,34.5)" style="opacity: 1;"><text class="legendtext" text-anchor="start" x="40" y="4.29" style="font-family: 'Open Sans', verdana, arial, sans-serif; font-size: 11px; fill: rgb(42, 63, 95); fill-opacity: 1; white-space: pre;">tau_b=0.01</text><g class="layers" style="opacity: 1;"><g class="legendfill"/><g class="legendlines"/><g class="legendsymbols"><g class="legendpoints"><path class="scatterpts" transform="translate(20,0)" d="M4,0A4,4 0 1,1 0,-4A4,4 0 0,1 4,0Z" style="opacity: 0.6; stroke-width: 0.5px; fill: rgb(0, 254, 53); fill-opacity: 1; stroke: rgb(0, 0, 0); stroke-opacity: 1;"/></g></g></g><rect class="legendtoggle" x="0" y="-9.5" width="115.265625" height="19" style="fill: rgb(0, 0, 0); fill-opacity: 0;"/></g></g><g class="groups" transform="translate(0,20)"><g class="traces" transform="translate(1,53.5)" style="opacity: 1;"><text class="legendtext" text-anchor="start" x="40" y="4.29" style="font-family: 'Open Sans', verdana, arial, sans-serif; font-size: 11px; fill: rgb(42, 63, 95); fill-opacity: 1; white-space: pre;">tau_b=0.1</text><g class="layers" style="opacity: 1;"><g class="legendfill"/><g class="legendlines"/><g class="legendsymbols"><g class="legendpoints"><path class="scatterpts" transform="translate(20,0)" d="M4,0A4,4 0 1,1 0,-4A4,4 0 0,1 4,0Z" style="opacity: 0.6; stroke-width: 0.5px; fill: rgb(106, 118, 252); fill-opacity: 1; stroke: rgb(0, 0, 0); stroke-opacity: 1;"/></g></g></g><rect class="legendtoggle" x="0" y="-9.5" width="115.265625" height="19" style="fill: rgb(0, 0, 0); fill-opacity: 0;"/></g></g><g class="groups" transform="translate(0,30)"><g class="traces" transform="translate(1,72.5)" style="opacity: 1;"><text class="legendtext" text-anchor="start" x="40" y="4.29" style="font-family: 'Open Sans', verdana, arial, sans-serif; font-size: 11px; fill: rgb(42, 63, 95); fill-opacity: 1; white-space: pre;">tau_b=1.0</text><g class="layers" style="opacity: 1;"><g class="legendfill"/><g class="legendlines"/><g class="legendsymbols"><g class="legendpoints"><path class="scatterpts" transform="translate(20,0)" d="M4,0A4,4 0 1,1 0,-4A4,4 0 0,1 4,0Z" style="opacity: 0.6; stroke-width: 0.5px; fill: rgb(254, 212, 196); fill-opacity: 1; stroke: rgb(0, 0, 0); stroke-opacity: 1;"/></g></g></g><rect class="legendtoggle" x="0" y="-9.5" width="115.265625" height="19" style="fill: rgb(0, 0, 0); fill-opacity: 0;"/></g></g><g class="groups" transform="translate(0,40)"><g class="traces" transform="translate(1,91.5)" style="opacity: 1;"><text class="legendtext" text-anchor="start" x="40" y="4.29" style="font-family: 'Open Sans', verdana, arial, sans-serif; font-size: 11px; fill: rgb(42, 63, 95); fill-opacity: 1; white-space: pre;">tau_b=10.0</text><g class="layers" style="opacity: 1;"><g class="legendfill"/><g class="legendlines"/><g class="legendsymbols"><g class="legendpoints"><path class="scatterpts" transform="translate(20,0)" d="M4,0A4,4 0 1,1 0,-4A4,4 0 0,1 4,0Z" style="opacity: 0.6; stroke-width: 0.5px; fill: rgb(254, 0, 206); fill-opacity: 1; stroke: rgb(0, 0, 0); stroke-opacity: 1;"/></g></g></g><rect class="legendtoggle" x="0" y="-9.5" width="115.265625" height="19" style="fill: rgb(0, 0, 0); fill-opacity: 0;"/></g></g><g class="groups" transform="translate(0,50)"><g class="traces" transform="translate(1,110.5)" style="opacity: 1;"><text class="legendtext" text-anchor="start" x="40" y="4.29" style="font-family: 'Open Sans', verdana, arial, sans-serif; font-size: 11px; fill: rgb(42, 63, 95); fill-opacity: 1; white-space: pre;">tau_b=100.0</text><g class="layers" style="opacity: 1;"><g class="legendfill"/><g class="legendlines"/><g class="legendsymbols"><g class="legendpoints"><path class="scatterpts" transform="translate(20,0)" d="M4,0A4,4 0 1,1 0,-4A4,4 0 0,1 4,0Z" style="opacity: 0.6; stroke-width: 0.5px; fill: rgb(13, 249, 255); fill-opacity: 1; stroke: rgb(0, 0, 0); stroke-opacity: 1;"/></g></g></g><rect class="legendtoggle" x="0" y="-9.5" width="115.265625" height="19" style="fill: rgb(0, 0, 0); fill-opacity: 0;"/></g></g><g class="groups" transform="translate(0,60)"><g class="traces" transform="translate(1,129.5)" style="opacity: 1;"><text class="legendtext" text-anchor="start" x="40" y="4.29" style="font-family: 'Open Sans', verdana, arial, sans-serif; font-size: 11px; fill: rgb(42, 63, 95); fill-opacity: 1; white-space: pre;">tau_b=1.0e+03</text><g class="layers" style="opacity: 1;"><g class="legendfill"/><g class="legendlines"/><g class="legendsymbols"><g class="legendpoints"><path class="scatterpts" transform="translate(20,0)" d="M4,0A4,4 0 1,1 0,-4A4,4 0 0,1 4,0Z" style="opacity: 0.6; stroke-width: 0.5px; fill: rgb(246, 249, 38); fill-opacity: 1; stroke: rgb(0, 0, 0); stroke-opacity: 1;"/></g></g></g><rect class="legendtoggle" x="0" y="-9.5" width="115.265625" height="19" style="fill: rgb(0, 0, 0); fill-opacity: 0;"/></g></g></g><rect class="scrollbar" rx="20" ry="3" width="0" height="0" style="fill: rgb(128, 139, 164); fill-opacity: 1;" x="0" y="0"/></g><g class="g-gtitle"><text class="gtitle" x="50" y="50" text-anchor="start" dy="0em" style="opacity: 1; font-family: 'Open Sans', verdana, arial, sans-serif; font-size: 16px; fill: rgb(0, 0, 0); fill-opacity: 1; white-space: pre;">Relative Error vs w0</text></g><g class="g-xtitle"><text class="xtitle" x="465" y="557.9" text-anchor="middle" style="opacity: 1; font-family: 'Open Sans', verdana, arial, sans-serif; font-size: 12px; fill: rgb(42, 63, 95); fill-opacity: 1; white-space: pre;">τ_b * w₀</text></g><g class="g-ytitle"><text class="ytitle" transform="rotate(-90,34.6125,310)" x="34.6125" y="310" text-anchor="middle" style="opacity: 1; font-family: 'Open Sans', verdana, arial, sans-serif; font-size: 12px; fill: rgb(42, 63, 95); fill-opacity: 1; white-space: pre;">Relative Error (L2 norm)</text></g></g></svg>