<svg class="main-svg" xmlns="http://www.w3.org/2000/svg" xmlns:xlink="http://www.w3.org/1999/xlink" width="1000" height="650" style="" viewBox="0 0 1000 650"><rect x="0" y="0" width="1000" height="650" style="fill: rgb(255, 255, 255); fill-opacity: 1;"/><defs id="defs-084a44"><g class="clips"><clipPath id="clip084a44xyplot" class="plotclip"><rect width="840" height="470"/></clipPath><clipPath class="axesclip" id="clip084a44x"><rect x="80" y="0" width="840" height="650"/></clipPath><clipPath class="axesclip" id="clip084a44y"><rect x="0" y="100" width="1000" height="470"/></clipPath><clipPath class="axesclip" id="clip084a44xy"><rect x="80" y="100" width="840" height="470"/></clipPath></g><g class="gradients"/><g class="patterns"/></defs><g class="bglayer"/><g class="layer-below"><g class="imagelayer"/><g class="shapelayer"/></g><g class="cartesianlayer"><g class="subplot xy"><g class="layer-subplot"><g class="shapelayer"/><g class="imagelayer"/></g><g class="minor-gridlayer"><g class="x"/><g class="y"/></g><g class="gridlayer"><g class="x"><path class="xgrid crisp" transform="translate(88.5,0)" d="M0,100v470" style="stroke: rgb(235, 240, 248); stroke-opacity: 1; stroke-width: 1px;"/><path class="xgrid crisp" transform="translate(171.64,0)" d="M0,100v470" style="stroke: rgb(235, 240, 248); stroke-opacity: 1; stroke-width: 1px;"/><path class="xgrid crisp" transform="translate(254.35,0)" d="M0,100v470" style="stroke: rgb(235, 240, 248); stroke-opacity: 1; stroke-width: 1px;"/><path class="xgrid crisp" transform="translate(336.65,0)" d="M0,100v470" style="stroke: rgb(235, 240, 248); stroke-opacity: 1; stroke-width: 1px;"/><path class="xgrid crisp" transform="translate(418.53,0)" d="M0,100v470" style="stroke: rgb(235, 240, 248); stroke-opacity: 1; stroke-width: 1px;"/><path class="xgrid crisp" transform="translate(500,0)" d="M0,100v470" style="stroke: rgb(235, 240, 248); stroke-opacity: 1; stroke-width: 1px;"/><path class="xgrid crisp" transform="translate(581.06,0)" d="M0,100v470" style="stroke: rgb(235, 240, 248); stroke-opacity: 1; stroke-width: 1px;"/><path class="xgrid crisp" transform="translate(661.73,0)" d="M0,100v470" style="stroke: rgb(235, 240, 248); stroke-opacity: 1; stroke-width: 1px;"/><path class="xgrid crisp" transform="translate(741.99,0)" d="M0,100v470" style="stroke: rgb(235, 240, 248); stroke-opacity: 1; stroke-width: 1px;"/><path class="xgrid crisp" transform="translate(821.86,0)" d="M0,100v470" style="stroke: rgb(235, 240, 248); stroke-opacity: 1; stroke-width: 1px;"/><path class="xgrid crisp" transform="translate(901.34,0)" d="M0,100v470" style="stroke: rgb(235, 240, 248); stroke-opacity: 1; stroke-width: 1px;"/></g><g class="y"><path class="ygrid crisp" transform="translate(0,471.93)" d="M80,0h840" style="stroke: rgb(235, 240, 248); stroke-opacity: 1; stroke-width: 1px;"/><path class="ygrid crisp" transform="translate(0,401.1)" d="M80,0h840" style="stroke: rgb(235, 240, 248); stroke-opacity: 1; stroke-width: 1px;"/><path class="ygrid crisp" transform="translate(0,330.28)" d="M80,0h840" style="stroke: rgb(235, 240, 248); stroke-opacity: 1; stroke-width: 1px;"/><path class="ygrid crisp" transform="translate(0,259.45)" d="M80,0h840" style="stroke: rgb(235, 240, 248); stroke-opacity: 1; stroke-width: 1px;"/><path class="ygrid crisp" transform="translate(0,188.63)" d="M80,0h840" style="stroke: rgb(235, 240, 248); stroke-opacity: 1; stroke-width: 1px;"/><path class="ygrid crisp" transform="translate(0,117.8)" d="M80,0h840" style="stroke: rgb(235, 240, 248); stroke-opacity: 1; stroke-width: 1px;"/></g></g><g class="zerolinelayer"><path class="yzl zl crisp" transform="translate(0,542.75)" d="M80,0h840" style="stroke: rgb(235, 240, 248); stroke-opacity: 1; stroke-width: 2px;"/></g><g class="layer-between"><g class="shapelayer"/><g class="imagelayer"/></g><path class="xlines-below"/><path class="ylines-below"/><g class="overlines-below"/><g class="xaxislayer-below"/><g class="yaxislayer-below"/><g class="overaxes-below"/><g class="overplot"><g class="xy" transform="translate(80,100)" clip-path="url(#clip084a44xyplot)"><g class="scatterlayer mlayer"><g class="trace scatter tracef7e21f" style="stroke-miterlimit: 2; opacity: 1;"><g class="fills"/><g class="errorbars"/><g class="lines"><path class="js-line" d="M45.75,27.25L120.6,177.54L195.45,293.97L270.3,376.8L345.15,426.31L420,442.75L494.85,426.4L569.7,377.51L644.55,296.35L719.4,183.18L794.25,38.26" style="vector-effect: none; fill: none; stroke: rgb(0, 114, 178); stroke-opacity: 1; stroke-width: 2px; opacity: 1;"/></g><g class="points"><path class="point" transform="translate(45.75,27.25)" d="M3,0A3,3 0 1,1 0,-3A3,3 0 0,1 3,0Z" style="opacity: 1; stroke-width: 0px; fill: rgb(0, 114, 178); fill-opacity: 1;"/><path class="point" transform="translate(120.6,177.54)" d="M3,0A3,3 0 1,1 0,-3A3,3 0 0,1 3,0Z" style="opacity: 1; stroke-width: 0px; fill: rgb(0, 114, 178); fill-opacity: 1;"/><path class="point" transform="translate(195.45,293.97)" d="M3,0A3,3 0 1,1 0,-3A3,3 0 0,1 3,0Z" style="opacity: 1; stroke-width: 0px; fill: rgb(0, 114, 178); fill-opacity: 1;"/><path class="point" transform="translate(270.3,376.8)" d="M3,0A3,3 0 1,1 0,-3A3,3 0 0,1 3,0Z" style="opacity: 1; stroke-width: 0px; fill: rgb(0, 114, 178); fill-opacity: 1;"/><path class="point" transform="translate(345.15,426.31)" d="M3,0A3,3 0 1,1 0,-3A3,3 0 0,1 3,0Z" style="opacity: 1; stroke-width: 0px; fill: rgb(0, 114, 178); fill-opacity: 1;"/><path class="point" transform="translate(420,442.75)" d="M3,0A3,3 0 1,1 0,-3A3,3 0 0,1 3,0Z" style="opacity: 1; stroke-width: 0px; fill: rgb(0, 114, 178); fill-opacity: 1;"/><path class="point" transform="translate(494.85,426.4)" d="M3,0A3,3 0 1,1 0,-3A3,3 0 0,1 3,0Z" style="opacity: 1; stroke-width: 0px; fill: rgb(0, 114, 178); fill-opacity: 1;"/><path class="point" transform="translate(569.7,377.51)" d="M3,0A3,3 0 1,1 0,-3A3,3 0 0,1 3,0Z" style="opacity: 1; stroke-width: 0px; fill: rgb(0, 114, 178); fill-opacity: 1;"/><path class="point" transform="translate(644.55,296.35)" d="M3,0A3,3 0 1,1 0,-3A3,3 0 0,1 3,0Z" style="opacity: 1; stroke-width: 0px; fill: rgb(0, 114, 178); fill-opacity: 1;"/><path class="point" transform="translate(719.4,183.18)" d="M3,0A3,3 0 1,1 0,-3A3,3 0 0,1 3,0Z" style="opacity: 1; stroke-width: 0px; fill: rgb(0, 114, 178); fill-opacity: 1;"/><path class="point" transform="translate(794.25,38.26)" d="M3,0A3,3 0 1,1 0,-3A3,3 0 0,1 3,0Z" style="opacity: 1; stroke-width: 0px; fill: rgb(0, 114, 178); fill-opacity: 1;"/></g><g class="text"/></g><g class="trace scatter tracea3c467" style="stroke-miterlimit: 2; opacity: 1;"><g class="fills"/><g class="errorbars"/><g class="lines"><path class="js-line" d="M45.75,27.26L120.6,177.55L195.45,293.97L270.3,376.8L345.15,426.31L420,442.75L494.85,426.4L569.7,377.51L644.55,296.35L719.4,183.18L794.25,38.27" style="vector-effect: none; fill: none; stroke: rgb(230, 159, 0); stroke-opacity: 1; stroke-width: 2px; opacity: 1;"/></g><g class="points"><path class="point" transform="translate(45.75,27.26)" d="M3,0A3,3 0 1,1 0,-3A3,3 0 0,1 3,0Z" style="opacity: 1; stroke-width: 0px; fill: rgb(230, 159, 0); fill-opacity: 1;"/><path class="point" transform="translate(120.6,177.55)" d="M3,0A3,3 0 1,1 0,-3A3,3 0 0,1 3,0Z" style="opacity: 1; stroke-width: 0px; fill: rgb(230, 159, 0); fill-opacity: 1;"/><path class="point" transform="translate(195.45,293.97)" d="M3,0A3,3 0 1,1 0,-3A3,3 0 0,1 3,0Z" style="opacity: 1; stroke-width: 0px; fill: rgb(230, 159, 0); fill-opacity: 1;"/><path class="point" transform="translate(270.3,376.8)" d="M3,0A3,3 0 1,1 0,-3A3,3 0 0,1 3,0Z" style="opacity: 1; stroke-width: 0px; fill: rgb(230, 159, 0); fill-opacity: 1;"/><path class="point" transform="translate(345.15,426.31)" d="M3,0A3,3 0 1,1 0,-3A3,3 0 0,1 3,0Z" style="opacity: 1; stroke-width: 0px; fill: rgb(230, 159, 0); fill-opacity: 1;"/><path class="point" transform="translate(420,442.75)" d="M3,0A3,3 0 1,1 0,-3A3,3 0 0,1 3,0Z" style="opacity: 1; stroke-width: 0px; fill: rgb(230, 159, 0); fill-opacity: 1;"/><path class="point" transform="translate(494.85,426.4)" d="M3,0A3,3 0 1,1 0,-3A3,3 0 0,1 3,0Z" style="opacity: 1; stroke-width: 0px; fill: rgb(230, 159, 0); fill-opacity: 1;"/><path class="point" transform="translate(569.7,377.51)" d="M3,0A3,3 0 1,1 0,-3A3,3 0 0,1 3,0Z" style="opacity: 1; stroke-width: 0px; fill: rgb(230, 159, 0); fill-opacity: 1;"/><path class="point" transform="translate(644.55,296.35)" d="M3,0A3,3 0 1,1 0,-3A3,3 0 0,1 3,0Z" style="opacity: 1; stroke-width: 0px; fill: rgb(230, 159, 0); fill-opacity: 1;"/><path class="point" transform="translate(719.4,183.18)" d="M3,0A3,3 0 1,1 0,-3A3,3 0 0,1 3,0Z" style="opacity: 1; stroke-width: 0px; fill: rgb(230, 159, 0); fill-opacity: 1;"/><path class="point" transform="translate(794.25,38.27)" d="M3,0A3,3 0 1,1 0,-3A3,3 0 0,1 3,0Z" style="opacity: 1; stroke-width: 0px; fill: rgb(230, 159, 0); fill-opacity: 1;"/></g><g class="text"/></g><g class="trace scatter trace84deae" style="stroke-miterlimit: 2; opacity: 1;"><g class="fills"/><g class="errorbars"/><g class="lines"><path class="js-line" d="M45.75,27.33L120.6,177.59L195.45,294L270.3,376.81L345.15,426.31L420,442.75L494.85,426.4L569.7,377.52L644.55,296.37L719.4,183.23L794.25,38.33" style="vector-effect: none; fill: none; stroke: rgb(204, 121, 167); stroke-opacity: 1; stroke-width: 2px; opacity: 1;"/></g><g class="points"><path class="point" transform="translate(45.75,27.33)" d="M3,0A3,3 0 1,1 0,-3A3,3 0 0,1 3,0Z" style="opacity: 1; stroke-width: 0px; fill: rgb(204, 121, 167); fill-opacity: 1;"/><path class="point" transform="translate(120.6,177.59)" d="M3,0A3,3 0 1,1 0,-3A3,3 0 0,1 3,0Z" style="opacity: 1; stroke-width: 0px; fill: rgb(204, 121, 167); fill-opacity: 1;"/><path class="point" transform="translate(195.45,294)" d="M3,0A3,3 0 1,1 0,-3A3,3 0 0,1 3,0Z" style="opacity: 1; stroke-width: 0px; fill: rgb(204, 121, 167); fill-opacity: 1;"/><path class="point" transform="translate(270.3,376.81)" d="M3,0A3,3 0 1,1 0,-3A3,3 0 0,1 3,0Z" style="opacity: 1; stroke-width: 0px; fill: rgb(204, 121, 167); fill-opacity: 1;"/><path class="point" transform="translate(345.15,426.31)" d="M3,0A3,3 0 1,1 0,-3A3,3 0 0,1 3,0Z" style="opacity: 1; stroke-width: 0px; fill: rgb(204, 121, 167); fill-opacity: 1;"/><path class="point" transform="translate(420,442.75)" d="M3,0A3,3 0 1,1 0,-3A3,3 0 0,1 3,0Z" style="opacity: 1; stroke-width: 0px; fill: rgb(204, 121, 167); fill-opacity: 1;"/><path class="point" transform="translate(494.85,426.4)" d="M3,0A3,3 0 1,1 0,-3A3,3 0 0,1 3,0Z" style="opacity: 1; stroke-width: 0px; fill: rgb(204, 121, 167); fill-opacity: 1;"/><path class="point" transform="translate(569.7,377.52)" d="M3,0A3,3 0 1,1 0,-3A3,3 0 0,1 3,0Z" style="opacity: 1; stroke-width: 0px; fill: rgb(204, 121, 167); fill-opacity: 1;"/><path class="point" transform="translate(644.55,296.37)" d="M3,0A3,3 0 1,1 0,-3A3,3 0 0,1 3,0Z" style="opacity: 1; stroke-width: 0px; fill: rgb(204, 121, 167); fill-opacity: 1;"/><path class="point" transform="translate(719.4,183.23)" d="M3,0A3,3 0 1,1 0,-3A3,3 0 0,1 3,0Z" style="opacity: 1; stroke-width: 0px; fill: rgb(204, 121, 167); fill-opacity: 1;"/><path class="point" transform="translate(794.25,38.33)" d="M3,0A3,3 0 1,1 0,-3A3,3 0 0,1 3,0Z" style="opacity: 1; stroke-width: 0px; fill: rgb(204, 121, 167); fill-opacity: 1;"/></g><g class="text"/></g><g class="trace scatter tracef2537d" style="stroke-miterlimit: 2; opacity: 1;"><g class="fills"/><g class="errorbars"/><g class="lines"><path class="js-line" d="M45.75,27.89L120.6,177.95L195.45,294.2L270.3,376.9L345.15,426.33L420,442.75L494.85,426.42L569.7,377.6L644.55,296.56L719.4,183.56L794.25,38.85" style="vector-effect: none; fill: none; stroke: rgb(86, 180, 233); stroke-opacity: 1; stroke-width: 2px; opacity: 1;"/></g><g class="points"><path class="point" transform="translate(45.75,27.89)" d="M3,0A3,3 0 1,1 0,-3A3,3 0 0,1 3,0Z" style="opacity: 1; stroke-width: 0px; fill: rgb(86, 180, 233); fill-opacity: 1;"/><path class="point" transform="translate(120.6,177.95)" d="M3,0A3,3 0 1,1 0,-3A3,3 0 0,1 3,0Z" style="opacity: 1; stroke-width: 0px; fill: rgb(86, 180, 233); fill-opacity: 1;"/><path class="point" transform="translate(195.45,294.2)" d="M3,0A3,3 0 1,1 0,-3A3,3 0 0,1 3,0Z" style="opacity: 1; stroke-width: 0px; fill: rgb(86, 180, 233); fill-opacity: 1;"/><path class="point" transform="translate(270.3,376.9)" d="M3,0A3,3 0 1,1 0,-3A3,3 0 0,1 3,0Z" style="opacity: 1; stroke-width: 0px; fill: rgb(86, 180, 233); fill-opacity: 1;"/><path class="point" transform="translate(345.15,426.33)" d="M3,0A3,3 0 1,1 0,-3A3,3 0 0,1 3,0Z" style="opacity: 1; stroke-width: 0px; fill: rgb(86, 180, 233); fill-opacity: 1;"/><path class="point" transform="translate(420,442.75)" d="M3,0A3,3 0 1,1 0,-3A3,3 0 0,1 3,0Z" style="opacity: 1; stroke-width: 0px; fill: rgb(86, 180, 233); fill-opacity: 1;"/><path class="point" transform="translate(494.85,426.42)" d="M3,0A3,3 0 1,1 0,-3A3,3 0 0,1 3,0Z" style="opacity: 1; stroke-width: 0px; fill: rgb(86, 180, 233); fill-opacity: 1;"/><path class="point" transform="translate(569.7,377.6)" d="M3,0A3,3 0 1,1 0,-3A3,3 0 0,1 3,0Z" style="opacity: 1; stroke-width: 0px; fill: rgb(86, 180, 233); fill-opacity: 1;"/><path class="point" transform="translate(644.55,296.56)" d="M3,0A3,3 0 1,1 0,-3A3,3 0 0,1 3,0Z" style="opacity: 1; stroke-width: 0px; fill: rgb(86, 180, 233); fill-opacity: 1;"/><path class="point" transform="translate(719.4,183.56)" d="M3,0A3,3 0 1,1 0,-3A3,3 0 0,1 3,0Z" style="opacity: 1; stroke-width: 0px; fill: rgb(86, 180, 233); fill-opacity: 1;"/><path class="point" transform="translate(794.25,38.85)" d="M3,0A3,3 0 1,1 0,-3A3,3 0 0,1 3,0Z" style="opacity: 1; stroke-width: 0px; fill: rgb(86, 180, 233); fill-opacity: 1;"/></g><g class="text"/></g><g class="trace scatter tracec738c1" style="stroke-miterlimit: 2; opacity: 1;"><g class="fills"/><g class="errorbars"/><g class="lines"><path class="js-line" d="M45.75,32.39L120.6,180.81L195.45,295.79L270.3,377.61L345.15,426.51L420,442.75L494.85,426.59L569.7,378.28L644.55,298.08L719.4,186.24L794.25,43" style="vector-effect: none; fill: none; stroke: rgb(0, 158, 115); stroke-opacity: 1; stroke-width: 2px; opacity: 1;"/></g><g class="points"><path class="point" transform="translate(45.75,32.39)" d="M3,0A3,3 0 1,1 0,-3A3,3 0 0,1 3,0Z" style="opacity: 1; stroke-width: 0px; fill: rgb(0, 158, 115); fill-opacity: 1;"/><path class="point" transform="translate(120.6,180.81)" d="M3,0A3,3 0 1,1 0,-3A3,3 0 0,1 3,0Z" style="opacity: 1; stroke-width: 0px; fill: rgb(0, 158, 115); fill-opacity: 1;"/><path class="point" transform="translate(195.45,295.79)" d="M3,0A3,3 0 1,1 0,-3A3,3 0 0,1 3,0Z" style="opacity: 1; stroke-width: 0px; fill: rgb(0, 158, 115); fill-opacity: 1;"/><path class="point" transform="translate(270.3,377.61)" d="M3,0A3,3 0 1,1 0,-3A3,3 0 0,1 3,0Z" style="opacity: 1; stroke-width: 0px; fill: rgb(0, 158, 115); fill-opacity: 1;"/><path class="point" transform="translate(345.15,426.51)" d="M3,0A3,3 0 1,1 0,-3A3,3 0 0,1 3,0Z" style="opacity: 1; stroke-width: 0px; fill: rgb(0, 158, 115); fill-opacity: 1;"/><path class="point" transform="translate(420,442.75)" d="M3,0A3,3 0 1,1 0,-3A3,3 0 0,1 3,0Z" style="opacity: 1; stroke-width: 0px; fill: rgb(0, 158, 115); fill-opacity: 1;"/><path class="point" transform="translate(494.85,426.59)" d="M3,0A3,3 0 1,1 0,-3A3,3 0 0,1 3,0Z" style="opacity: 1; stroke-width: 0px; fill: rgb(0, 158, 115); fill-opacity: 1;"/><path class="point" transform="translate(569.7,378.28)" d="M3,0A3,3 0 1,1 0,-3A3,3 0 0,1 3,0Z" style="opacity: 1; stroke-width: 0px; fill: rgb(0, 158, 115); fill-opacity: 1;"/><path class="point" transform="translate(644.55,298.08)" d="M3,0A3,3 0 1,1 0,-3A3,3 0 0,1 3,0Z" style="opacity: 1; stroke-width: 0px; fill: rgb(0, 158, 115); fill-opacity: 1;"/><path class="point" transform="translate(719.4,186.24)" d="M3,0A3,3 0 1,1 0,-3A3,3 0 0,1 3,0Z" style="opacity: 1; stroke-width: 0px; fill: rgb(0, 158, 115); fill-opacity: 1;"/><path class="point" transform="translate(794.25,43)" d="M3,0A3,3 0 1,1 0,-3A3,3 0 0,1 3,0Z" style="opacity: 1; stroke-width: 0px; fill: rgb(0, 158, 115); fill-opacity: 1;"/></g><g class="text"/></g><g class="trace scatter trace6270f9" style="stroke-miterlimit: 2; opacity: 1;"><g class="fills"/><g class="errorbars"/><g class="lines"><path class="js-line" d="M45.75,65.57L120.6,201.87L195.45,307.55L270.3,382.79L345.15,427.79L420,442.75L494.85,427.86L569.7,383.31L644.55,309.31L719.4,206.04L794.25,73.7" style="vector-effect: none; fill: none; stroke: rgb(240, 228, 66); stroke-opacity: 1; stroke-width: 2px; opacity: 1;"/></g><g class="points"><path class="point" transform="translate(45.75,65.57)" d="M3,0A3,3 0 1,1 0,-3A3,3 0 0,1 3,0Z" style="opacity: 1; stroke-width: 0px; fill: rgb(240, 228, 66); fill-opacity: 1;"/><path class="point" transform="translate(120.6,201.87)" d="M3,0A3,3 0 1,1 0,-3A3,3 0 0,1 3,0Z" style="opacity: 1; stroke-width: 0px; fill: rgb(240, 228, 66); fill-opacity: 1;"/><path class="point" transform="translate(195.45,307.55)" d="M3,0A3,3 0 1,1 0,-3A3,3 0 0,1 3,0Z" style="opacity: 1; stroke-width: 0px; fill: rgb(240, 228, 66); fill-opacity: 1;"/><path class="point" transform="translate(270.3,382.79)" d="M3,0A3,3 0 1,1 0,-3A3,3 0 0,1 3,0Z" style="opacity: 1; stroke-width: 0px; fill: rgb(240, 228, 66); fill-opacity: 1;"/><path class="point" transform="translate(345.15,427.79)" d="M3,0A3,3 0 1,1 0,-3A3,3 0 0,1 3,0Z" style="opacity: 1; stroke-width: 0px; fill: rgb(240, 228, 66); fill-opacity: 1;"/><path class="point" transform="translate(420,442.75)" d="M3,0A3,3 0 1,1 0,-3A3,3 0 0,1 3,0Z" style="opacity: 1; stroke-width: 0px; fill: rgb(240, 228, 66); fill-opacity: 1;"/><path class="point" transform="translate(494.85,427.86)" d="M3,0A3,3 0 1,1 0,-3A3,3 0 0,1 3,0Z" style="opacity: 1; stroke-width: 0px; fill: rgb(240, 228, 66); fill-opacity: 1;"/><path class="point" transform="translate(569.7,383.31)" d="M3,0A3,3 0 1,1 0,-3A3,3 0 0,1 3,0Z" style="opacity: 1; stroke-width: 0px; fill: rgb(240, 228, 66); fill-opacity: 1;"/><path class="point" transform="translate(644.55,309.31)" d="M3,0A3,3 0 1,1 0,-3A3,3 0 0,1 3,0Z" style="opacity: 1; stroke-width: 0px; fill: rgb(240, 228, 66); fill-opacity: 1;"/><path class="point" transform="translate(719.4,206.04)" d="M3,0A3,3 0 1,1 0,-3A3,3 0 0,1 3,0Z" style="opacity: 1; stroke-width: 0px; fill: rgb(240, 228, 66); fill-opacity: 1;"/><path class="point" transform="translate(794.25,73.7)" d="M3,0A3,3 0 1,1 0,-3A3,3 0 0,1 3,0Z" style="opacity: 1; stroke-width: 0px; fill: rgb(240, 228, 66); fill-opacity: 1;"/></g><g class="text"/></g><g class="trace scatter trace51430b" style="stroke-miterlimit: 2; opacity: 1;"><g class="fills"/><g class="errorbars"/><g class="lines"><path class="js-line" d="M45.75,214.68L120.6,296.79L195.45,360.65L270.3,406.26L345.15,433.63L420,442.75L494.85,433.63L569.7,406.27L644.55,360.68L719.4,296.87L794.25,214.84" style="vector-effect: none; fill: none; stroke: rgb(213, 94, 0); stroke-opacity: 1; stroke-width: 2px; opacity: 1;"/></g><g class="points"><path class="point" transform="translate(45.75,214.68)" d="M3,0A3,3 0 1,1 0,-3A3,3 0 0,1 3,0Z" style="opacity: 1; stroke-width: 0px; fill: rgb(213, 94, 0); fill-opacity: 1;"/><path class="point" transform="translate(120.6,296.79)" d="M3,0A3,3 0 1,1 0,-3A3,3 0 0,1 3,0Z" style="opacity: 1; stroke-width: 0px; fill: rgb(213, 94, 0); fill-opacity: 1;"/><path class="point" transform="translate(195.45,360.65)" d="M3,0A3,3 0 1,1 0,-3A3,3 0 0,1 3,0Z" style="opacity: 1; stroke-width: 0px; fill: rgb(213, 94, 0); fill-opacity: 1;"/><path class="point" transform="translate(270.3,406.26)" d="M3,0A3,3 0 1,1 0,-3A3,3 0 0,1 3,0Z" style="opacity: 1; stroke-width: 0px; fill: rgb(213, 94, 0); fill-opacity: 1;"/><path class="point" transform="translate(345.15,433.63)" d="M3,0A3,3 0 1,1 0,-3A3,3 0 0,1 3,0Z" style="opacity: 1; stroke-width: 0px; fill: rgb(213, 94, 0); fill-opacity: 1;"/><path class="point" transform="translate(420,442.75)" d="M3,0A3,3 0 1,1 0,-3A3,3 0 0,1 3,0Z" style="opacity: 1; stroke-width: 0px; fill: rgb(213, 94, 0); fill-opacity: 1;"/><path class="point" transform="translate(494.85,433.63)" d="M3,0A3,3 0 1,1 0,-3A3,3 0 0,1 3,0Z" style="opacity: 1; stroke-width: 0px; fill: rgb(213, 94, 0); fill-opacity: 1;"/><path class="point" transform="translate(569.7,406.27)" d="M3,0A3,3 0 1,1 0,-3A3,3 0 0,1 3,0Z" style="opacity: 1; stroke-width: 0px; fill: rgb(213, 94, 0); fill-opacity: 1;"/><path class="point" transform="translate(644.55,360.68)" d="M3,0A3,3 0 1,1 0,-3A3,3 0 0,1 3,0Z" style="opacity: 1; stroke-width: 0px; fill: rgb(213, 94, 0); fill-opacity: 1;"/><path class="point" transform="translate(719.4,296.87)" d="M3,0A3,3 0 1,1 0,-3A3,3 0 0,1 3,0Z" style="opacity: 1; stroke-width: 0px; fill: rgb(213, 94, 0); fill-opacity: 1;"/><path class="point" transform="translate(794.25,214.84)" d="M3,0A3,3 0 1,1 0,-3A3,3 0 0,1 3,0Z" style="opacity: 1; stroke-width: 0px; fill: rgb(213, 94, 0); fill-opacity: 1;"/></g><g class="text"/></g><g class="trace scatter trace3c1357" style="stroke-miterlimit: 2; opacity: 1;"><g class="fills"/><g class="errorbars"/><g class="lines"><path class="js-line" d="M45.75,389.72L120.6,408.71L195.45,423.54L270.3,434.19L345.15,440.6L420,442.75L494.85,440.59L569.7,434.08L644.55,423.18L719.4,407.85L794.25,388.06" style="vector-effect: none; fill: none; stroke: rgb(153, 153, 153); stroke-opacity: 1; stroke-width: 2px; opacity: 1;"/></g><g class="points"><path class="point" transform="translate(45.75,389.72)" d="M3,0A3,3 0 1,1 0,-3A3,3 0 0,1 3,0Z" style="opacity: 1; stroke-width: 0px; fill: rgb(153, 153, 153); fill-opacity: 1;"/><path class="point" transform="translate(120.6,408.71)" d="M3,0A3,3 0 1,1 0,-3A3,3 0 0,1 3,0Z" style="opacity: 1; stroke-width: 0px; fill: rgb(153, 153, 153); fill-opacity: 1;"/><path class="point" transform="translate(195.45,423.54)" d="M3,0A3,3 0 1,1 0,-3A3,3 0 0,1 3,0Z" style="opacity: 1; stroke-width: 0px; fill: rgb(153, 153, 153); fill-opacity: 1;"/><path class="point" transform="translate(270.3,434.19)" d="M3,0A3,3 0 1,1 0,-3A3,3 0 0,1 3,0Z" style="opacity: 1; stroke-width: 0px; fill: rgb(153, 153, 153); fill-opacity: 1;"/><path class="point" transform="translate(345.15,440.6)" d="M3,0A3,3 0 1,1 0,-3A3,3 0 0,1 3,0Z" style="opacity: 1; stroke-width: 0px; fill: rgb(153, 153, 153); fill-opacity: 1;"/><path class="point" transform="translate(420,442.75)" d="M3,0A3,3 0 1,1 0,-3A3,3 0 0,1 3,0Z" style="opacity: 1; stroke-width: 0px; fill: rgb(153, 153, 153); fill-opacity: 1;"/><path class="point" transform="translate(494.85,440.59)" d="M3,0A3,3 0 1,1 0,-3A3,3 0 0,1 3,0Z" style="opacity: 1; stroke-width: 0px; fill: rgb(153, 153, 153); fill-opacity: 1;"/><path class="point" transform="translate(569.7,434.08)" d="M3,0A3,3 0 1,1 0,-3A3,3 0 0,1 3,0Z" style="opacity: 1; stroke-width: 0px; fill: rgb(153, 153, 153); fill-opacity: 1;"/><path class="point" transform="translate(644.55,423.18)" d="M3,0A3,3 0 1,1 0,-3A3,3 0 0,1 3,0Z" style="opacity: 1; stroke-width: 0px; fill: rgb(153, 153, 153); fill-opacity: 1;"/><path class="point" transform="translate(719.4,407.85)" d="M3,0A3,3 0 1,1 0,-3A3,3 0 0,1 3,0Z" style="opacity: 1; stroke-width: 0px; fill: rgb(153, 153, 153); fill-opacity: 1;"/><path class="point" transform="translate(794.25,388.06)" d="M3,0A3,3 0 1,1 0,-3A3,3 0 0,1 3,0Z" style="opacity: 1; stroke-width: 0px; fill: rgb(153, 153, 153); fill-opacity: 1;"/></g><g class="text"/></g><g class="trace scatter tracefa8a7a" style="stroke-miterlimit: 2; opacity: 1;"><g class="fills"/><g class="errorbars"/><g class="lines"><path class="js-line" d="M45.75,431.54L120.6,435.57L195.45,438.71L270.3,440.95L345.15,442.3L420,442.75L494.85,442.3L569.7,440.94L644.55,438.68L719.4,435.5L794.25,431.4" style="vector-effect: none; fill: none; stroke: rgb(0, 114, 178); stroke-opacity: 1; stroke-width: 2px; opacity: 1;"/></g><g class="points"><path class="point" transform="translate(45.75,431.54)" d="M3,0A3,3 0 1,1 0,-3A3,3 0 0,1 3,0Z" style="opacity: 1; stroke-width: 0px; fill: rgb(0, 114, 178); fill-opacity: 1;"/><path class="point" transform="translate(120.6,435.57)" d="M3,0A3,3 0 1,1 0,-3A3,3 0 0,1 3,0Z" style="opacity: 1; stroke-width: 0px; fill: rgb(0, 114, 178); fill-opacity: 1;"/><path class="point" transform="translate(195.45,438.71)" d="M3,0A3,3 0 1,1 0,-3A3,3 0 0,1 3,0Z" style="opacity: 1; stroke-width: 0px; fill: rgb(0, 114, 178); fill-opacity: 1;"/><path class="point" transform="translate(270.3,440.95)" d="M3,0A3,3 0 1,1 0,-3A3,3 0 0,1 3,0Z" style="opacity: 1; stroke-width: 0px; fill: rgb(0, 114, 178); fill-opacity: 1;"/><path class="point" transform="translate(345.15,442.3)" d="M3,0A3,3 0 1,1 0,-3A3,3 0 0,1 3,0Z" style="opacity: 1; stroke-width: 0px; fill: rgb(0, 114, 178); fill-opacity: 1;"/><path class="point" transform="translate(420,442.75)" d="M3,0A3,3 0 1,1 0,-3A3,3 0 0,1 3,0Z" style="opacity: 1; stroke-width: 0px; fill: rgb(0, 114, 178); fill-opacity: 1;"/><path class="point" transform="translate(494.85,442.3)" d="M3,0A3,3 0 1,1 0,-3A3,3 0 0,1 3,0Z" style="opacity: 1; stroke-width: 0px; fill: rgb(0, 114, 178); fill-opacity: 1;"/><path class="point" transform="translate(569.7,440.94)" d="M3,0A3,3 0 1,1 0,-3A3,3 0 0,1 3,0Z" style="opacity: 1; stroke-width: 0px; fill: rgb(0, 114, 178); fill-opacity: 1;"/><path class="point" transform="translate(644.55,438.68)" d="M3,0A3,3 0 1,1 0,-3A3,3 0 0,1 3,0Z" style="opacity: 1; stroke-width: 0px; fill: rgb(0, 114, 178); fill-opacity: 1;"/><path class="point" transform="translate(719.4,435.5)" d="M3,0A3,3 0 1,1 0,-3A3,3 0 0,1 3,0Z" style="opacity: 1; stroke-width: 0px; fill: rgb(0, 114, 178); fill-opacity: 1;"/><path class="point" transform="translate(794.25,431.4)" d="M3,0A3,3 0 1,1 0,-3A3,3 0 0,1 3,0Z" style="opacity: 1; stroke-width: 0px; fill: rgb(0, 114, 178); fill-opacity: 1;"/></g><g class="text"/></g><g class="trace scatter trace853d3d" style="stroke-miterlimit: 2; opacity: 1;"><g class="fills"/><g class="errorbars"/><g class="lines"><path class="js-line" d="M45.75,435.87L195.45,440.27L270.3,441.64L420,442.75L494.85,442.47L644.55,440.24L719.4,438.29L794.25,435.77" style="vector-effect: none; fill: none; stroke: rgb(230, 159, 0); stroke-opacity: 1; stroke-width: 2px; opacity: 1;"/></g><g class="points"><path class="point" transform="translate(45.75,435.87)" d="M3,0A3,3 0 1,1 0,-3A3,3 0 0,1 3,0Z" style="opacity: 1; stroke-width: 0px; fill: rgb(230, 159, 0); fill-opacity: 1;"/><path class="point" transform="translate(120.6,438.34)" d="M3,0A3,3 0 1,1 0,-3A3,3 0 0,1 3,0Z" style="opacity: 1; stroke-width: 0px; fill: rgb(230, 159, 0); fill-opacity: 1;"/><path class="point" transform="translate(195.45,440.27)" d="M3,0A3,3 0 1,1 0,-3A3,3 0 0,1 3,0Z" style="opacity: 1; stroke-width: 0px; fill: rgb(230, 159, 0); fill-opacity: 1;"/><path class="point" transform="translate(270.3,441.64)" d="M3,0A3,3 0 1,1 0,-3A3,3 0 0,1 3,0Z" style="opacity: 1; stroke-width: 0px; fill: rgb(230, 159, 0); fill-opacity: 1;"/><path class="point" transform="translate(345.15,442.47)" d="M3,0A3,3 0 1,1 0,-3A3,3 0 0,1 3,0Z" style="opacity: 1; stroke-width: 0px; fill: rgb(230, 159, 0); fill-opacity: 1;"/><path class="point" transform="translate(420,442.75)" d="M3,0A3,3 0 1,1 0,-3A3,3 0 0,1 3,0Z" style="opacity: 1; stroke-width: 0px; fill: rgb(230, 159, 0); fill-opacity: 1;"/><path class="point" transform="translate(494.85,442.47)" d="M3,0A3,3 0 1,1 0,-3A3,3 0 0,1 3,0Z" style="opacity: 1; stroke-width: 0px; fill: rgb(230, 159, 0); fill-opacity: 1;"/><path class="point" transform="translate(569.7,441.64)" d="M3,0A3,3 0 1,1 0,-3A3,3 0 0,1 3,0Z" style="opacity: 1; stroke-width: 0px; fill: rgb(230, 159, 0); fill-opacity: 1;"/><path class="point" transform="translate(644.55,440.24)" d="M3,0A3,3 0 1,1 0,-3A3,3 0 0,1 3,0Z" style="opacity: 1; stroke-width: 0px; fill: rgb(230, 159, 0); fill-opacity: 1;"/><path class="point" transform="translate(719.4,438.29)" d="M3,0A3,3 0 1,1 0,-3A3,3 0 0,1 3,0Z" style="opacity: 1; stroke-width: 0px; fill: rgb(230, 159, 0); fill-opacity: 1;"/><path class="point" transform="translate(794.25,435.77)" d="M3,0A3,3 0 1,1 0,-3A3,3 0 0,1 3,0Z" style="opacity: 1; stroke-width: 0px; fill: rgb(230, 159, 0); fill-opacity: 1;"/></g><g class="text"/></g><g class="trace scatter traceac60cf" style="stroke-miterlimit: 2; opacity: 1;"><g class="fills"/><g class="errorbars"/><g class="lines"/><g class="points"/><g class="text"/></g><g class="trace scatter tracec2b1ba" style="stroke-miterlimit: 2; opacity: 1;"><g class="fills"/><g class="errorbars"/><g class="lines"/><g class="points"/><g class="text"/></g></g></g></g><g class="zerolinelayer-above"/><path class="xlines-above crisp" d="M0,0" style="fill: none;"/><path class="ylines-above crisp" d="M0,0" style="fill: none;"/><g class="overlines-above"/><g class="xaxislayer-above"><g class="xtick"><text text-anchor="middle" x="0" y="583" transform="translate(88.5,0)" style="font-family: 'Open Sans', verdana, arial, sans-serif; font-size: 12px; fill: rgb(42, 63, 95); fill-opacity: 1; white-space: pre;">0.975</text></g><g class="xtick"><text text-anchor="middle" x="0" y="583" style="font-family: 'Open Sans', verdana, arial, sans-serif; font-size: 12px; fill: rgb(42, 63, 95); fill-opacity: 1; white-space: pre;" transform="translate(171.64,0)">0.98</text></g><g class="xtick"><text text-anchor="middle" x="0" y="583" style="font-family: 'Open Sans', verdana, arial, sans-serif; font-size: 12px; fill: rgb(42, 63, 95); fill-opacity: 1; white-space: pre;" transform="translate(254.35,0)">0.985</text></g><g class="xtick"><text text-anchor="middle" x="0" y="583" style="font-family: 'Open Sans', verdana, arial, sans-serif; font-size: 12px; fill: rgb(42, 63, 95); fill-opacity: 1; white-space: pre;" transform="translate(336.65,0)">0.99</text></g><g class="xtick"><text text-anchor="middle" x="0" y="583" style="font-family: 'Open Sans', verdana, arial, sans-serif; font-size: 12px; fill: rgb(42, 63, 95); fill-opacity: 1; white-space: pre;" transform="translate(418.53,0)">0.995</text></g><g class="xtick"><text text-anchor="middle" x="0" y="583" style="font-family: 'Open Sans', verdana, arial, sans-serif; font-size: 12px; fill: rgb(42, 63, 95); fill-opacity: 1; white-space: pre;" transform="translate(500,0)">1</text></g><g class="xtick"><text text-anchor="middle" x="0" y="583" style="font-family: 'Open Sans', verdana, arial, sans-serif; font-size: 12px; fill: rgb(42, 63, 95); fill-opacity: 1; white-space: pre;" transform="translate(581.06,0)">1.005</text></g><g class="xtick"><text text-anchor="middle" x="0" y="583" style="font-family: 'Open Sans', verdana, arial, sans-serif; font-size: 12px; fill: rgb(42, 63, 95); fill-opacity: 1; white-space: pre;" transform="translate(661.73,0)">1.01</text></g><g class="xtick"><text text-anchor="middle" x="0" y="583" style="font-family: 'Open Sans', verdana, arial, sans-serif; font-size: 12px; fill: rgb(42, 63, 95); fill-opacity: 1; white-space: pre;" transform="translate(741.99,0)">1.015</text></g><g class="xtick"><text text-anchor="middle" x="0" y="583" style="font-family: 'Open Sans', verdana, arial, sans-serif; font-size: 12px; fill: rgb(42, 63, 95); fill-opacity: 1; white-space: pre;" transform="translate(821.86,0)">1.02</text></g><g class="xtick"><text text-anchor="middle" x="0" y="583" style="font-family: 'Open Sans', verdana, arial, sans-serif; font-size: 12px; fill: rgb(42, 63, 95); fill-opacity: 1; white-space: pre;" transform="translate(901.34,0)">1.025</text></g></g><g class="yaxislayer-above"><g class="ytick"><text text-anchor="end" x="79" y="4.199999999999999" transform="translate(0,542.75)" style="font-family: 'Open Sans', verdana, arial, sans-serif; font-size: 12px; fill: rgb(42, 63, 95); fill-opacity: 1; white-space: pre;">0</text></g><g class="ytick"><text text-anchor="end" x="79" y="4.199999999999999" style="font-family: 'Open Sans', verdana, arial, sans-serif; font-size: 12px; fill: rgb(42, 63, 95); fill-opacity: 1; white-space: pre;" transform="translate(0,471.93)">50μ</text></g><g class="ytick"><text text-anchor="end" x="79" y="4.199999999999999" style="font-family: 'Open Sans', verdana, arial, sans-serif; font-size: 12px; fill: rgb(42, 63, 95); fill-opacity: 1; white-space: pre;" transform="translate(0,401.1)">100μ</text></g><g class="ytick"><text text-anchor="end" x="79" y="4.199999999999999" style="font-family: 'Open Sans', verdana, arial, sans-serif; font-size: 12px; fill: rgb(42, 63, 95); fill-opacity: 1; white-space: pre;" transform="translate(0,330.28)">150μ</text></g><g class="ytick"><text text-anchor="end" x="79" y="4.199999999999999" style="font-family: 'Open Sans', verdana, arial, sans-serif; font-size: 12px; fill: rgb(42, 63, 95); fill-opacity: 1; white-space: pre;" transform="translate(0,259.45)">200μ</text></g><g class="ytick"><text text-anchor="end" x="79" y="4.199999999999999" style="font-family: 'Open Sans', verdana, arial, sans-serif; font-size: 12px; fill: rgb(42, 63, 95); fill-opacity: 1; white-space: pre;" transform="translate(0,188.63)">250μ</text></g><g class="ytick"><text text-anchor="end" x="79" y="4.199999999999999" style="font-family: 'Open Sans', verdana, arial, sans-serif; font-size: 12px; fill: rgb(42, 63, 95); fill-opacity: 1; white-space: pre;" transform="translate(0,117.8)">300μ</text></g></g><g class="overaxes-above"/></g></g><g class="polarlayer"/><g class="smithlayer"/><g class="ternarylayer"/><g class="geolayer"/><g class="funnelarealayer"/><g class="pielayer"/><g class="iciclelayer"/><g class="treemaplayer"/><g class="sunburstlayer"/><g class="glimages"/><defs id="topdefs-084a44"><g class="clips"/><clipPath id="legend084a44"><rect width="124" height="238" x="0" y="0"/></clipPath></defs><g class="layer-above"><g class="imagelayer"/><g class="shapelayer"/></g><g class="infolayer"><g class="legend" pointer-events="all" transform="translate(96.8,109.4)"><rect class="bg" shape-rendering="crispEdges" style="stroke: rgb(68, 68, 68); stroke-opacity: 1; fill: rgb(255, 255, 255); fill-opacity: 0.8; stroke-width: 0px;" width="124" height="238" x="0" y="0"/><g class="scrollbox" transform="" clip-path="url(#legend084a44)"><g class="groups"><g class="traces" transform="translate(0,14.5)" style="opacity: 1;"><text class="legendtext" text-anchor="start" x="40" y="4.680000000000001" style="font-family: 'Open Sans', verdana, arial, sans-serif; font-size: 12px; fill: rgb(42, 63, 95); fill-opacity: 1; white-space: pre;">A = 1.000e-04</text><g class="layers" style="opacity: 1;"><g class="legendfill"/><g class="legendlines"><path class="js-line" d="M5,0h30" style="fill: none; stroke: rgb(0, 114, 178); stroke-opacity: 1; stroke-width: 2px;"/></g><g class="legendsymbols"><g class="legendpoints"><path class="scatterpts" transform="translate(20,0)" d="M3,0A3,3 0 1,1 0,-3A3,3 0 0,1 3,0Z" style="opacity: 1; stroke-width: 0px; fill: rgb(0, 114, 178); fill-opacity: 1;"/></g></g></g><rect class="legendtoggle" x="0" y="-9.5" width="118.783203125" height="19" style="fill: rgb(0, 0, 0); fill-opacity: 0;"/></g><g class="traces" transform="translate(0,33.5)" style="opacity: 1;"><text class="legendtext" text-anchor="start" x="40" y="4.680000000000001" style="font-family: 'Open Sans', verdana, arial, sans-serif; font-size: 12px; fill: rgb(42, 63, 95); fill-opacity: 1; white-space: pre;">A = 2.848e-04</text><g class="layers" style="opacity: 1;"><g class="legendfill"/><g class="legendlines"><path class="js-line" d="M5,0h30" style="fill: none; stroke: rgb(230, 159, 0); stroke-opacity: 1; stroke-width: 2px;"/></g><g class="legendsymbols"><g class="legendpoints"><path class="scatterpts" transform="translate(20,0)" d="M3,0A3,3 0 1,1 0,-3A3,3 0 0,1 3,0Z" style="opacity: 1; stroke-width: 0px; fill: rgb(230, 159, 0); fill-opacity: 1;"/></g></g></g><rect class="legendtoggle" x="0" y="-9.5" width="118.783203125" height="19" style="fill: rgb(0, 0, 0); fill-opacity: 0;"/></g><g class="traces" transform="translate(0,52.5)" style="opacity: 1;"><text class="legendtext" text-anchor="start" x="40" y="4.680000000000001" style="font-family: 'Open Sans', verdana, arial, sans-serif; font-size: 12px; fill: rgb(42, 63, 95); fill-opacity: 1; white-space: pre;">A = 8.111e-04</text><g class="layers" style="opacity: 1;"><g class="legendfill"/><g class="legendlines"><path class="js-line" d="M5,0h30" style="fill: none; stroke: rgb(204, 121, 167); stroke-opacity: 1; stroke-width: 2px;"/></g><g class="legendsymbols"><g class="legendpoints"><path class="scatterpts" transform="translate(20,0)" d="M3,0A3,3 0 1,1 0,-3A3,3 0 0,1 3,0Z" style="opacity: 1; stroke-width: 0px; fill: rgb(204, 121, 167); fill-opacity: 1;"/></g></g></g><rect class="legendtoggle" x="0" y="-9.5" width="118.783203125" height="19" style="fill: rgb(0, 0, 0); fill-opacity: 0;"/></g><g class="traces" transform="translate(0,71.5)" style="opacity: 1;"><text class="legendtext" text-anchor="start" x="40" y="4.680000000000001" style="font-family: 'Open Sans', verdana, arial, sans-serif; font-size: 12px; fill: rgb(42, 63, 95); fill-opacity: 1; white-space: pre;">A = 2.310e-03</text><g class="layers" style="opacity: 1;"><g class="legendfill"/><g class="legendlines"><path class="js-line" d="M5,0h30" style="fill: none; stroke: rgb(86, 180, 233); stroke-opacity: 1; stroke-width: 2px;"/></g><g class="legendsymbols"><g class="legendpoints"><path class="scatterpts" transform="translate(20,0)" d="M3,0A3,3 0 1,1 0,-3A3,3 0 0,1 3,0Z" style="opacity: 1; stroke-width: 0px; fill: rgb(86, 180, 233); fill-opacity: 1;"/></g></g></g><rect class="legendtoggle" x="0" y="-9.5" width="118.783203125" height="19" style="fill: rgb(0, 0, 0); fill-opacity: 0;"/></g><g class="traces" transform="translate(0,90.5)" style="opacity: 1;"><text class="legendtext" text-anchor="start" x="40" y="4.680000000000001" style="font-family: 'Open Sans', verdana, arial, sans-serif; font-size: 12px; fill: rgb(42, 63, 95); fill-opacity: 1; white-space: pre;">A = 6.579e-03</text><g class="layers" style="opacity: 1;"><g class="legendfill"/><g class="legendlines"><path class="js-line" d="M5,0h30" style="fill: none; stroke: rgb(0, 158, 115); stroke-opacity: 1; stroke-width: 2px;"/></g><g class="legendsymbols"><g class="legendpoints"><path class="scatterpts" transform="translate(20,0)" d="M3,0A3,3 0 1,1 0,-3A3,3 0 0,1 3,0Z" style="opacity: 1; stroke-width: 0px; fill: rgb(0, 158, 115); fill-opacity: 1;"/></g></g></g><rect class="legendtoggle" x="0" y="-9.5" width="118.783203125" height="19" style="fill: rgb(0, 0, 0); fill-opacity: 0;"/></g><g class="traces" transform="translate(0,109.5)" style="opacity: 1;"><text class="legendtext" text-anchor="start" x="40" y="4.680000000000001" style="font-family: 'Open Sans', verdana, arial, sans-serif; font-size: 12px; fill: rgb(42, 63, 95); fill-opacity: 1; white-space: pre;">A = 1.874e-02</text><g class="layers" style="opacity: 1;"><g class="legendfill"/><g class="legendlines"><path class="js-line" d="M5,0h30" style="fill: none; stroke: rgb(240, 228, 66); stroke-opacity: 1; stroke-width: 2px;"/></g><g class="legendsymbols"><g class="legendpoints"><path class="scatterpts" transform="translate(20,0)" d="M3,0A3,3 0 1,1 0,-3A3,3 0 0,1 3,0Z" style="opacity: 1; stroke-width: 0px; fill: rgb(240, 228, 66); fill-opacity: 1;"/></g></g></g><rect class="legendtoggle" x="0" y="-9.5" width="118.783203125" height="19" style="fill: rgb(0, 0, 0); fill-opacity: 0;"/></g><g class="traces" transform="translate(0,128.5)" style="opacity: 1;"><text class="legendtext" text-anchor="start" x="40" y="4.680000000000001" style="font-family: 'Open Sans', verdana, arial, sans-serif; font-size: 12px; fill: rgb(42, 63, 95); fill-opacity: 1; white-space: pre;">A = 5.337e-02</text><g class="layers" style="opacity: 1;"><g class="legendfill"/><g class="legendlines"><path class="js-line" d="M5,0h30" style="fill: none; stroke: rgb(213, 94, 0); stroke-opacity: 1; stroke-width: 2px;"/></g><g class="legendsymbols"><g class="legendpoints"><path class="scatterpts" transform="translate(20,0)" d="M3,0A3,3 0 1,1 0,-3A3,3 0 0,1 3,0Z" style="opacity: 1; stroke-width: 0px; fill: rgb(213, 94, 0); fill-opacity: 1;"/></g></g></g><rect class="legendtoggle" x="0" y="-9.5" width="118.783203125" height="19" style="fill: rgb(0, 0, 0); fill-opacity: 0;"/></g><g class="traces" transform="translate(0,147.5)" style="opacity: 1;"><text class="legendtext" text-anchor="start" x="40" y="4.680000000000001" style="font-family: 'Open Sans', verdana, arial, sans-serif; font-size: 12px; fill: rgb(42, 63, 95); fill-opacity: 1; white-space: pre;">A = 1.520e-01</text><g class="layers" style="opacity: 1;"><g class="legendfill"/><g class="legendlines"><path class="js-line" d="M5,0h30" style="fill: none; stroke: rgb(153, 153, 153); stroke-opacity: 1; stroke-width: 2px;"/></g><g class="legendsymbols"><g class="legendpoints"><path class="scatterpts" transform="translate(20,0)" d="M3,0A3,3 0 1,1 0,-3A3,3 0 0,1 3,0Z" style="opacity: 1; stroke-width: 0px; fill: rgb(153, 153, 153); fill-opacity: 1;"/></g></g></g><rect class="legendtoggle" x="0" y="-9.5" width="118.783203125" height="19" style="fill: rgb(0, 0, 0); fill-opacity: 0;"/></g><g class="traces" transform="translate(0,166.5)" style="opacity: 1;"><text class="legendtext" text-anchor="start" x="40" y="4.680000000000001" style="font-family: 'Open Sans', verdana, arial, sans-serif; font-size: 12px; fill: rgb(42, 63, 95); fill-opacity: 1; white-space: pre;">A = 4.329e-01</text><g class="layers" style="opacity: 1;"><g class="legendfill"/><g class="legendlines"><path class="js-line" d="M5,0h30" style="fill: none; stroke: rgb(0, 114, 178); stroke-opacity: 1; stroke-width: 2px;"/></g><g class="legendsymbols"><g class="legendpoints"><path class="scatterpts" transform="translate(20,0)" d="M3,0A3,3 0 1,1 0,-3A3,3 0 0,1 3,0Z" style="opacity: 1; stroke-width: 0px; fill: rgb(0, 114, 178); fill-opacity: 1;"/></g></g></g><rect class="legendtoggle" x="0" y="-9.5" width="118.783203125" height="19" style="fill: rgb(0, 0, 0); fill-opacity: 0;"/></g><g class="traces" transform="translate(0,185.5)" style="opacity: 1;"><text class="legendtext" text-anchor="start" x="40" y="4.680000000000001" style="font-family: 'Open Sans', verdana, arial, sans-serif; font-size: 12px; fill: rgb(42, 63, 95); fill-opacity: 1; white-space: pre;">A = 1.233e+00</text><g class="layers" style="opacity: 1;"><g class="legendfill"/><g class="legendlines"><path class="js-line" d="M5,0h30" style="fill: none; stroke: rgb(230, 159, 0); stroke-opacity: 1; stroke-width: 2px;"/></g><g class="legendsymbols"><g class="legendpoints"><path class="scatterpts" transform="translate(20,0)" d="M3,0A3,3 0 1,1 0,-3A3,3 0 0,1 3,0Z" style="opacity: 1; stroke-width: 0px; fill: rgb(230, 159, 0); fill-opacity: 1;"/></g></g></g><rect class="legendtoggle" x="0" y="-9.5" width="118.783203125" height="19" style="fill: rgb(0, 0, 0); fill-opacity: 0;"/></g><g class="traces" transform="translate(0,204.5)" style="opacity: 1;"><text class="legendtext" text-anchor="start" x="40" y="4.680000000000001" style="font-family: 'Open Sans', verdana, arial, sans-serif; font-size: 12px; fill: rgb(42, 63, 95); fill-opacity: 1; white-space: pre;">A = 3.511e+00</text><g class="layers" style="opacity: 1;"><g class="legendfill"/><g class="legendlines"><path class="js-line" d="M5,0h30" style="fill: none; stroke: rgb(204, 121, 167); stroke-opacity: 1; stroke-width: 2px;"/></g><g class="legendsymbols"><g class="legendpoints"><path class="scatterpts" transform="translate(20,0)" d="M3,0A3,3 0 1,1 0,-3A3,3 0 0,1 3,0Z" style="opacity: 1; stroke-width: 0px; fill: rgb(204, 121, 167); fill-opacity: 1;"/></g></g></g><rect class="legendtoggle" x="0" y="-9.5" width="118.783203125" height="19" style="fill: rgb(0, 0, 0); fill-opacity: 0;"/></g><g class="traces" transform="translate(0,223.5)" style="opacity: 1;"><text class="legendtext" text-anchor="start" x="40" y="4.680000000000001" style="font-family: 'Open Sans', verdana, arial, sans-serif; font-size: 12px; fill: rgb(42, 63, 95); fill-opacity: 1; white-space: pre;">A = 1.000e+01</text><g class="layers" style="opacity: 1;"><g class="legendfill"/><g class="legendlines"><path class="js-line" d="M5,0h30" style="fill: none; stroke: rgb(86, 180, 233); stroke-opacity: 1; stroke-width: 2px;"/></g><g class="legendsymbols"><g class="legendpoints"><path class="scatterpts" transform="translate(20,0)" d="M3,0A3,3 0 1,1 0,-3A3,3 0 0,1 3,0Z" style="opacity: 1; stroke-width: 0px; fill: rgb(86, 180, 233); fill-opacity: 1;"/></g></g></g><rect class="legendtoggle" x="0" y="-9.5" width="118.783203125" height="19" style="fill: rgb(0, 0, 0); fill-opacity: 0;"/></g></g></g><rect class="scrollbar" rx="20" ry="3" width="0" height="0" style="fill: rgb(128, 139, 164); fill-opacity: 1;" x="0" y="0"/></g><g class="g-gtitle"><text class="gtitle" x="50" y="50" text-anchor="start" dy="0em" style="opacity: 1; font-family: 'Open Sans', verdana, arial, sans-serif; font-size: 17px; fill: rgb(42, 63, 95); fill-opacity: 1; white-space: pre;">Distance vs Beta (All Amplitudes)</text></g><g class="g-xtitle"><text class="xtitle" x="500" y="611.3" text-anchor="middle" style="opacity: 1; font-family: 'Open Sans', verdana, arial, sans-serif; font-size: 14px; fill: rgb(42, 63, 95); fill-opacity: 1; white-space: pre;">Beta</text></g><g class="g-ytitle"><text class="ytitle" transform="rotate(-90,31.584375,335)" x="31.584375" y="335" text-anchor="middle" style="opacity: 1; font-family: 'Open Sans', verdana, arial, sans-serif; font-size: 14px; fill: rgb(42, 63, 95); fill-opacity: 1; white-space: pre;">Relative L2 Error</text></g></g></svg>